<svg width="100%" height="100%" id="svg" viewBox="0 0 1440 390" xmlns="http://www.w3.org/2000/svg" class="transition duration-300 ease-in-out delay-150"><path d="M 0,400 C 0,400 0,133 0,133 C 97.20574162679424,132.89473684210526 194.41148325358847,132.78947368421055 279,143 C 363.5885167464115,153.21052631578945 435.5598086124403,173.73684210526315 531,182 C 626.4401913875597,190.26315789473685 745.3492822966506,186.26315789473685 850,165 C 954.6507177033494,143.73684210526315 1045.043062200957,105.21052631578947 1141,97 C 1236.956937799043,88.78947368421053 1338.4784688995214,110.89473684210526 1440,133 C 1440,133 1440,400 1440,400 Z" stroke="none" stroke-width="0" fill="#b9b7aa" fill-opacity="0.53" class="transition-all duration-300 ease-in-out delay-150 path-0" transform="rotate(-180 720 200)"></path><path d="M 0,400 C 0,400 0,266 0,266 C 108.32535885167468,239.37799043062202 216.65071770334936,212.75598086124404 316,216 C 415.34928229665064,219.24401913875596 505.72248803827745,252.35406698564591 591,254 C 676.2775119617226,255.64593301435409 756.4593301435407,225.82775119617222 855,217 C 953.5406698564593,208.17224880382778 1070.4401913875597,220.33492822966508 1171,232 C 1271.5598086124403,243.66507177033492 1355.77990430622,254.83253588516746 1440,266 C 1440,266 1440,400 1440,400 Z" stroke="none" stroke-width="0" fill="#b9b7aa" fill-opacity="1" class="transition-all duration-300 ease-in-out delay-150 path-1" transform="rotate(-180 720 200)"></path></svg>