<svg width="100%" height="100%" id="svg" viewBox="0 0 1440 390" xmlns="http://www.w3.org/2000/svg" class="transition duration-300 ease-in-out delay-150"><path d="M 0,400 C 0,400 0,133 0,133 C 97.26315789473685,119.20095693779905 194.5263157894737,105.40191387559808 299,106 C 403.4736842105263,106.59808612440192 515.1578947368422,121.59330143540669 611,125 C 706.8421052631578,128.4066985645933 786.8421052631579,120.22488038277513 866,128 C 945.1578947368421,135.77511961722487 1023.4736842105262,159.50717703349284 1119,163 C 1214.5263157894738,166.49282296650716 1327.2631578947369,149.74641148325358 1440,133 C 1440,133 1440,400 1440,400 Z" stroke="none" stroke-width="0" fill="#b9b7aa" fill-opacity="0.53" class="transition-all duration-300 ease-in-out delay-150 path-0"></path><path d="M 0,400 C 0,400 0,266 0,266 C 99.36842105263159,263.444976076555 198.73684210526318,260.8899521531101 293,270 C 387.2631578947368,279.1100478468899 476.42105263157896,299.88516746411483 582,293 C 687.578947368421,286.11483253588517 809.578947368421,251.56937799043064 904,249 C 998.421052631579,246.43062200956936 1065.2631578947369,275.8373205741627 1150,284 C 1234.7368421052631,292.1626794258373 1337.3684210526317,279.08133971291863 1440,266 C 1440,266 1440,400 1440,400 Z" stroke="none" stroke-width="0" fill="#b9b7aa" fill-opacity="1" class="transition-all duration-300 ease-in-out delay-150 path-1"></path></svg>